<?xml version="1.0" standalone="no"?>
<!DOCTYPE svg PUBLIC "-//W3C//DTD SVG 20010904//EN"
 "http://www.w3.org/TR/2001/REC-SVG-20010904/DTD/svg10.dtd">
<svg version="1.0" xmlns="http://www.w3.org/2000/svg"
 width="2047.000000pt" height="2047.000000pt" viewBox="0 0 2047.000000 2047.000000"
 preserveAspectRatio="xMidYMid meet">
<metadata>
Created by potrace 1.11, written by Peter Selinger 2001-2013
</metadata>
<g transform="translate(0.000000,2047.000000) scale(0.100000,-0.100000)"
fill="#000000" stroke="none">
<path d="M12037 17694 c-1 -1 -51 -5 -112 -8 -200 -12 -375 -31 -525 -56 -30
-5 -71 -11 -90 -14 -80 -12 -264 -49 -405 -83 -82 -19 -157 -36 -165 -38 -8
-2 -35 -10 -60 -18 -25 -8 -60 -18 -79 -22 -72 -15 -537 -175 -636 -219 -16
-7 -97 -42 -180 -77 -125 -53 -1446 -708 -1795 -891 -58 -30 -181 -95 -275
-143 -93 -48 -201 -105 -240 -125 -38 -21 -104 -56 -145 -77 -148 -79 -230
-125 -504 -283 -17 -10 -96 -54 -176 -99 -80 -45 -152 -86 -160 -91 -30 -18
-547 -277 -595 -297 -27 -12 -84 -36 -125 -54 -41 -17 -88 -37 -105 -44 -256
-112 -782 -276 -1283 -400 -128 -32 -231 -59 -230 -61 5 -4 146 -19 268 -29
141 -12 426 -6 545 10 17 2 56 7 88 10 59 6 65 7 152 25 28 5 61 12 75 14 14
3 39 8 55 11 17 3 184 44 373 91 189 47 345 84 348 81 3 -2 -44 -37 -103 -77
-205 -137 -562 -296 -974 -435 -178 -59 -440 -141 -481 -150 -9 -2 -41 -11
-70 -20 -64 -19 -416 -116 -439 -120 -8 -2 -69 -17 -135 -35 -65 -17 -126 -33
-134 -35 -125 -28 -468 -121 -462 -125 9 -8 70 -28 102 -34 113 -22 146 -27
280 -42 25 -2 54 -7 65 -9 11 -2 65 -7 120 -11 55 -3 116 -8 135 -10 42 -4
582 -4 660 0 121 7 257 17 285 21 17 3 55 7 85 10 80 8 109 12 275 40 209 36
198 34 315 61 583 136 970 325 1485 725 94 73 172 135 175 139 3 4 32 28 65
55 33 26 139 114 235 193 96 80 195 162 220 182 197 161 560 407 898 609 111
66 204 121 207 121 2 0 26 13 52 28 270 158 789 407 1148 549 273 108 762 278
855 298 8 2 42 11 75 21 33 10 65 19 70 20 6 1 30 7 55 15 25 7 50 13 55 15 6
1 55 13 110 27 138 35 408 94 523 113 15 3 52 9 82 14 84 15 101 18 150 24 25
4 56 8 70 11 38 6 177 23 255 31 248 23 374 29 645 28 267 0 361 -5 587 -29
130 -15 253 -35 433 -71 455 -91 647 -176 733 -325 33 -57 52 -117 77 -236 37
-187 52 -288 52 -373 1 -135 -12 -157 -192 -305 -52 -43 -122 -104 -155 -136
-33 -32 -71 -68 -85 -81 -64 -60 -67 -59 86 -53 77 2 234 7 349 10 116 3 287
8 380 10 94 3 249 7 345 10 l175 5 -120 -116 c-66 -64 -239 -232 -384 -373
-145 -141 -276 -268 -293 -282 -16 -15 -26 -29 -21 -32 51 -31 149 -75 183
-82 3 -1 25 -5 50 -9 25 -5 53 -10 62 -12 10 -1 24 -6 32 -11 24 -13 245 -188
246 -193 0 -3 -135 -5 -299 -5 -165 0 -298 -2 -296 -5 3 -5 304 -215 478 -335
l79 -54 -44 -12 c-23 -6 -61 -18 -83 -25 -22 -7 -93 -27 -157 -45 -65 -17
-118 -35 -118 -40 0 -8 95 -228 140 -324 10 -22 69 -152 130 -290 61 -137 126
-281 143 -320 24 -54 74 -121 215 -290 102 -121 187 -218 189 -215 5 5 7 84
18 675 11 649 15 788 19 793 11 10 81 -57 124 -117 46 -66 123 -162 152 -191
9 -8 67 -76 130 -150 110 -129 128 -150 197 -230 l31 -34 67 209 67 209 29
-35 c58 -68 151 -214 191 -298 72 -154 121 -326 202 -701 29 -131 57 -256 66
-290 21 -78 142 -601 154 -660 9 -48 67 -305 82 -365 9 -33 18 -69 20 -79 2
-10 9 -35 15 -54 11 -34 14 -118 5 -157 -2 -11 -5 -28 -5 -37 -1 -10 -7 -18
-15 -18 -26 0 -289 201 -460 352 -41 37 -51 35 -64 -9 -101 -339 -68 -574 95
-699 167 -128 494 -106 782 52 313 172 517 461 523 740 3 146 -16 214 -120
439 -162 351 -159 345 -227 505 -32 74 -65 153 -75 175 -9 22 -32 81 -50 130
-18 50 -42 117 -55 150 -43 115 -119 398 -141 525 -4 25 -8 47 -9 50 -13 60
-28 250 -29 365 -1 309 32 480 163 846 38 106 46 189 27 294 -28 165 -102 300
-342 628 -158 215 -199 289 -352 618 l-40 86 40 47 c22 26 84 82 137 125 155
126 212 196 286 354 94 200 145 401 142 562 -1 55 -5 105 -9 111 -5 7 -175
-45 -505 -154 -274 -90 -507 -168 -518 -172 -57 -24 -907 -301 -911 -297 -5 5
-8 20 -18 90 -4 27 -9 56 -11 65 -1 10 -6 40 -9 67 -4 28 -11 75 -16 105 -5
30 -12 73 -15 95 -12 88 -28 175 -33 175 -3 0 -37 -9 -76 -21 -117 -35 -220
-84 -331 -159 -99 -67 -128 -80 -179 -80 -87 0 -262 49 -461 130 -11 4 -40 15
-65 25 -25 9 -56 22 -70 27 -522 210 -768 292 -1030 344 -14 3 -41 9 -60 14
-37 10 -48 12 -180 35 -93 17 -263 41 -350 50 -30 3 -71 7 -90 10 -109 13
-721 30 -733 19z"/>
<path d="M12477 16834 c-1 -1 -56 -5 -122 -8 -131 -7 -181 -11 -295 -26 -41
-5 -97 -12 -125 -16 -27 -3 -59 -8 -70 -10 -11 -3 -36 -7 -55 -10 -134 -21
-548 -116 -690 -158 -25 -8 -79 -24 -120 -36 -73 -21 -400 -126 -430 -137 -8
-4 -17 -7 -20 -8 -3 -1 -12 -5 -20 -8 -8 -3 -76 -29 -151 -56 -119 -43 -177
-65 -264 -101 -11 -5 -49 -21 -85 -35 -36 -15 -78 -33 -95 -40 -16 -7 -46 -20
-65 -28 -19 -8 -75 -33 -125 -56 -49 -22 -103 -46 -119 -53 -16 -7 -139 -68
-275 -135 -304 -151 -404 -204 -646 -347 -66 -39 -128 -75 -137 -81 -234 -137
-603 -396 -838 -588 -184 -150 -409 -365 -515 -492 -27 -33 -55 -66 -62 -73
-58 -61 -201 -285 -247 -386 -55 -121 -96 -279 -96 -372 0 -43 0 -43 26 -34
15 6 74 38 133 72 58 33 120 69 136 78 49 29 469 279 485 290 8 6 22 13 30 17
8 4 35 19 61 33 428 252 785 408 969 425 41 3 86 8 100 10 14 2 52 7 85 10 33
3 74 8 91 10 17 2 60 7 95 10 108 11 132 14 184 20 62 7 123 13 195 20 30 3
71 7 90 10 19 2 62 7 95 10 33 3 77 8 98 11 69 8 148 16 277 29 30 4 66 8 80
10 24 4 151 16 200 20 14 1 48 5 75 8 28 4 73 9 100 12 28 3 70 7 95 10 25 3
65 7 90 9 40 3 67 6 190 21 19 2 69 7 110 11 41 4 82 8 90 10 8 1 21 3 28 3 7
1 -24 55 -68 120 -44 66 -82 125 -85 133 -4 10 29 24 122 52 245 74 339 108
448 162 61 30 119 63 130 72 11 9 19 16 17 15 -10 -5 -187 64 -272 105 -147
70 -264 158 -312 233 -49 77 -38 223 25 313 63 90 253 237 446 346 83 47 438
222 571 283 240 108 616 280 618 282 2 2 -37 5 -88 7 -50 2 -92 2 -93 2z"/>
<path d="M13610 15186 c-552 -190 -1733 -918 -2787 -1718 -100 -76 -192 -146
-204 -155 -48 -41 -59 -49 -95 -78 -45 -36 -155 -127 -239 -198 -82 -71 -301
-289 -361 -361 -130 -158 -248 -278 -339 -347 -52 -39 -90 -55 -265 -109 -58
-18 -186 -59 -285 -91 -99 -31 -286 -91 -415 -132 -129 -42 -323 -104 -430
-138 -107 -35 -199 -64 -205 -65 -5 -1 -66 -20 -135 -43 -69 -22 -132 -41
-140 -41 -9 0 -7 -7 8 -23 12 -13 20 -26 17 -29 -12 -11 156 -76 250 -97 171
-37 223 -49 465 -105 129 -30 269 -60 310 -66 41 -7 84 -14 95 -16 97 -19 313
-23 465 -10 47 4 87 9 90 11 3 2 34 6 70 9 36 4 76 8 90 11 21 4 86 13 150 20
14 1 48 5 75 9 84 11 107 14 175 20 36 4 76 9 90 11 14 3 54 7 90 11 36 3 78
7 93 9 16 1 25 -1 20 -5 -4 -4 -120 -82 -256 -174 -136 -91 -242 -168 -235
-171 13 -4 240 -60 668 -164 113 -27 344 -84 513 -125 169 -42 314 -76 322
-76 41 0 8 -29 -157 -136 -101 -66 -239 -156 -308 -201 -69 -45 -221 -144
-339 -220 -146 -95 -216 -146 -223 -163 -27 -71 -1 -189 67 -299 37 -60 265
-372 285 -391 10 -8 95 -142 131 -205 78 -133 138 -305 158 -450 9 -66 8 -281
-2 -335 -3 -14 -8 -42 -12 -63 -23 -132 -108 -344 -201 -503 -24 -40 -29 -44
-67 -45 -23 0 -94 -2 -157 -4 -63 -1 -202 -4 -308 -6 -106 -2 -198 -7 -204
-10 -8 -5 -1 -26 21 -66 102 -184 118 -260 69 -326 -46 -60 -207 -124 -328
-131 -145 -8 -269 82 -340 249 -109 253 -174 308 -390 332 -158 17 -240 4
-322 -50 -120 -80 -197 -313 -193 -585 1 -64 -2 -134 -7 -155 -4 -20 -11 -54
-14 -75 -3 -20 -8 -40 -10 -43 -2 -4 -6 -23 -9 -42 -3 -19 -26 -110 -50 -202
-25 -92 -45 -169 -45 -172 0 -6 471 4 530 11 19 2 69 7 110 10 121 11 344 44
480 72 41 9 83 17 93 19 37 8 116 30 235 65 133 40 294 108 396 167 135 78
230 122 363 167 200 68 291 109 419 188 47 29 93 58 102 63 10 6 59 39 109 73
90 62 149 116 345 319 171 177 387 321 536 358 88 22 115 24 293 25 98 1 193
7 232 16 210 44 370 161 588 429 140 174 385 406 728 690 134 111 203 160 326
231 55 31 152 92 215 134 108 73 278 180 285 180 5 0 290 162 365 208 151 92
290 204 290 233 0 6 -17 41 -39 77 -21 37 -70 124 -110 195 -39 70 -103 184
-142 255 -40 70 -81 143 -93 162 -12 19 -33 56 -46 83 -14 26 -27 47 -30 47
-3 0 -25 -30 -50 -66 -25 -35 -63 -91 -86 -122 -22 -31 -69 -100 -105 -152
-36 -52 -177 -256 -313 -453 l-248 -357 -61 5 c-34 3 -78 7 -97 10 -19 3 -55
7 -80 10 -51 6 -260 85 -260 99 0 5 29 48 63 97 104 143 165 311 174 474 4 72
11 109 24 130 21 36 81 93 249 239 69 60 151 132 184 160 32 28 62 53 67 54 5
2 14 12 19 22 8 15 2 20 -38 35 -26 10 -60 23 -77 30 -16 7 -73 30 -125 50
-52 20 -113 45 -135 55 -22 9 -62 25 -88 35 -66 25 -69 32 -53 145 13 92 86
373 126 480 54 146 110 282 149 361 l47 95 -22 68 c-59 174 -178 385 -326 577
-217 281 -238 313 -240 359 -1 18 12 191 18 235 2 17 6 68 9 115 3 47 8 99 10
116 3 17 7 65 10 105 6 85 14 174 20 239 2 25 7 83 11 130 3 47 7 101 9 120
16 163 16 182 3 174 -147 -88 -492 -409 -693 -644 -138 -162 -139 -164 -275
-345 -366 -491 -687 -1044 -915 -1580 -42 -99 -78 -182 -80 -183 -6 -7 -50 71
-82 143 -27 62 -37 97 -59 195 -12 55 -10 220 3 300 36 213 144 450 321 705
49 71 208 275 258 331 10 12 51 59 89 105 39 45 98 112 132 148 33 36 78 84
98 106 21 22 99 105 175 185 76 80 152 161 170 180 18 19 88 94 155 165 68 72
142 150 165 175 45 48 282 299 346 366 22 22 60 57 86 78 41 33 138 153 138
170 0 9 -8 7 -110 -28z"/>
<path d="M1830 15138 c-400 -216 -768 -545 -1100 -982 -44 -59 -80 -109 -80
-113 0 -3 -10 -20 -23 -37 -45 -61 -214 -342 -252 -421 -11 -22 -25 -47 -31
-55 -17 -23 -119 -254 -158 -356 -31 -83 -88 -271 -101 -334 -14 -64 -35 -179
-40 -215 -3 -23 -7 -50 -9 -61 -3 -12 -7 -54 -11 -95 -3 -41 -8 -96 -10 -124
-6 -61 -6 -480 -1 -550 8 -99 17 -201 22 -230 23 -163 39 -257 64 -370 5 -22
18 -98 30 -170 31 -194 55 -273 147 -485 19 -44 27 -62 58 -134 14 -32 25 -63
25 -68 0 -6 6 -24 14 -41 7 -18 41 -104 76 -192 117 -298 230 -499 574 -1017
203 -306 359 -524 505 -703 73 -90 201 -244 216 -261 6 -6 35 -40 65 -75 203
-235 309 -348 525 -564 136 -137 270 -258 380 -347 186 -149 209 -169 335
-291 120 -117 159 -149 485 -393 116 -86 212 -160 215 -163 3 -3 75 -58 160
-123 85 -64 182 -139 215 -168 53 -45 154 -117 266 -190 52 -34 382 -246 444
-285 58 -37 322 -195 410 -246 33 -19 69 -39 80 -46 11 -7 27 -16 35 -20 8 -4
42 -22 75 -41 33 -19 83 -47 110 -62 77 -42 159 -87 223 -122 86 -48 781 -396
907 -455 61 -28 149 -70 197 -92 48 -23 89 -41 92 -41 2 0 44 -19 93 -41 179
-84 254 -116 563 -239 58 -23 119 -48 135 -55 17 -7 64 -27 105 -45 117 -51
264 -128 312 -164 39 -30 58 -38 124 -50 34 -7 409 -104 519 -135 55 -16 170
-48 255 -71 85 -24 182 -51 214 -61 33 -11 64 -19 70 -19 6 0 40 -9 76 -20 84
-26 690 -200 712 -205 9 -2 72 -20 140 -40 339 -101 669 -181 953 -229 17 -3
71 -12 120 -21 50 -9 104 -17 120 -20 17 -2 59 -8 95 -14 36 -6 82 -13 102
-15 21 -3 53 -7 70 -10 47 -8 95 -14 161 -21 32 -4 67 -8 78 -10 11 -2 48 -7
82 -10 34 -3 73 -8 87 -10 14 -2 54 -7 90 -10 36 -3 81 -8 100 -10 19 -3 64
-7 100 -10 62 -5 105 -8 238 -20 242 -21 583 -40 927 -51 376 -12 1061 -6
1330 11 223 14 275 17 305 20 19 2 71 6 115 10 44 3 91 8 105 10 14 2 52 6 85
10 61 6 120 13 165 20 14 2 45 7 70 10 25 3 86 13 135 21 50 8 108 17 130 20
245 35 805 170 1140 275 509 160 1089 408 1450 622 52 30 272 178 290 194 12
10 41 34 65 52 262 203 613 567 838 869 242 324 436 735 527 1112 18 76 45
204 49 231 3 19 12 77 20 129 30 185 42 369 40 588 -2 277 -15 427 -59 682
-13 74 -26 146 -30 160 -3 14 -7 36 -10 50 -10 54 -14 69 -49 201 -45 172
-156 508 -195 594 -5 11 -36 81 -67 155 -110 257 -261 547 -436 835 -62 102
-117 194 -123 203 -65 113 -207 309 -320 443 -16 20 -37 45 -45 55 -36 46 -70
85 -70 80 0 -2 44 -94 98 -203 172 -350 237 -501 310 -723 41 -121 85 -294 97
-375 3 -22 10 -67 15 -100 30 -188 32 -523 4 -755 -30 -251 -114 -561 -215
-794 -40 -92 -147 -307 -189 -381 -13 -22 -36 -65 -53 -95 -79 -144 -263 -407
-372 -529 -99 -113 -321 -313 -460 -416 -22 -17 -44 -34 -50 -38 -5 -4 -107
-70 -225 -147 -118 -76 -246 -159 -285 -184 -239 -155 -879 -411 -1380 -551
-119 -34 -456 -118 -515 -128 -14 -3 -95 -19 -180 -36 -85 -17 -173 -33 -195
-36 -66 -9 -98 -14 -196 -29 -101 -16 -148 -23 -219 -30 -290 -33 -289 -33
-395 -41 -44 -3 -100 -8 -125 -10 -340 -27 -1190 -27 -1570 0 -30 2 -93 7
-140 10 -47 3 -103 8 -125 10 -22 1 -76 6 -120 10 -44 3 -116 11 -161 16 -44
5 -107 11 -140 14 -32 3 -75 8 -94 10 -19 2 -57 7 -85 10 -27 4 -61 8 -75 10
-14 2 -79 11 -145 20 -148 20 -168 23 -280 40 -49 8 -108 16 -130 20 -23 3
-50 7 -60 9 -11 2 -63 11 -115 20 -222 38 -441 78 -495 90 -11 2 -67 13 -125
25 -152 29 -303 62 -309 66 -3 1 -24 6 -46 9 -22 4 -47 8 -55 11 -8 2 -26 6
-40 9 -165 30 -868 207 -1105 278 -188 56 -422 132 -460 147 -11 5 -49 19 -85
31 -36 12 -182 68 -325 125 -143 57 -318 124 -390 149 -427 153 -578 218
-1030 444 -176 88 -394 193 -484 232 -311 135 -493 234 -843 459 -109 69 -205
131 -215 136 -426 239 -517 296 -788 489 -132 94 -244 174 -250 179 -5 4 -80
58 -165 119 -133 94 -390 290 -426 323 -7 5 -31 26 -55 45 -24 19 -64 52 -89
74 -25 21 -56 47 -70 59 -29 24 -163 140 -170 147 -3 3 -27 25 -55 49 -278
246 -853 807 -1026 1002 -170 190 -714 964 -884 1257 -6 9 -35 60 -66 112 -95
163 -125 221 -177 345 -28 66 -65 147 -84 180 -78 137 -141 337 -163 510 -4
28 -8 61 -11 75 -32 190 -21 704 21 950 2 14 7 41 9 60 3 19 8 45 10 56 2 12
7 37 10 55 42 263 167 625 279 813 16 28 35 60 41 71 37 69 159 257 219 337
89 118 163 204 303 348 228 235 259 270 237 270 -5 0 -51 -24 -103 -52z"/>
<path d="M3320 13179 c-111 -29 -167 -45 -385 -111 -227 -68 -657 -205 -905
-289 -590 -198 -780 -276 -780 -319 0 -8 13 -46 29 -85 16 -38 44 -108 62
-155 18 -47 38 -94 45 -104 13 -19 14 -18 23 6 12 33 54 65 100 78 20 5 79 21
131 36 52 14 104 29 115 34 11 5 58 23 105 41 112 42 124 47 340 152 250 121
294 138 470 182 212 53 297 93 551 262 140 92 245 144 392 192 56 19 97 38 97
46 0 7 -26 23 -57 36 -88 35 -190 35 -333 -2z"/>
<path d="M6173 12548 c-425 -433 -745 -1008 -869 -1563 -14 -59 -34 -167 -40
-210 -3 -28 -7 -52 -9 -55 -10 -17 -20 -238 -20 -440 0 -210 6 -333 21 -440 6
-43 35 -219 39 -240 66 -309 147 -566 315 -1000 148 -383 211 -552 207 -556
-3 -3 -262 -9 -621 -13 l-39 -1 59 -45 c32 -25 64 -49 69 -53 52 -42 422 -267
625 -380 25 -14 90 -51 145 -82 55 -32 181 -99 280 -151 279 -144 496 -262
564 -308 34 -22 66 -41 70 -41 5 0 16 19 24 43 34 90 40 147 33 337 -12 319
-10 377 13 389 9 5 36 11 61 14 25 4 56 9 70 12 14 3 38 8 55 11 81 14 543 97
560 100 18 2 271 48 320 58 11 2 54 9 95 16 41 7 125 30 185 52 144 52 334
116 520 173 191 60 236 74 255 82 8 3 20 7 25 9 97 24 612 244 778 332 188
100 231 218 230 632 0 367 -30 503 -130 604 -75 75 -197 107 -388 101 -125 -4
-252 -13 -295 -20 -14 -3 -47 -7 -75 -10 -91 -10 -149 -19 -270 -39 -49 -9
-108 -18 -130 -21 -22 -2 -121 -21 -220 -40 -99 -20 -191 -38 -205 -41 -14 -2
-92 -18 -175 -33 -240 -46 -316 -60 -380 -67 -33 -3 -69 -8 -80 -11 -11 -2
-83 -6 -160 -8 -319 -9 -493 73 -591 278 -41 86 -60 174 -100 457 -5 34 -31
198 -39 250 -2 14 -7 43 -10 65 -3 22 -12 78 -20 125 -7 47 -17 109 -20 138
-4 29 -9 51 -12 48 -3 -2 -6 -44 -8 -93 -2 -48 -6 -146 -9 -218 -3 -71 -8
-197 -11 -280 -3 -82 -8 -197 -10 -255 -3 -58 -7 -184 -11 -280 -3 -96 -7
-181 -7 -188 -1 -30 -256 20 -372 73 -185 85 -329 231 -419 426 -31 67 -69
178 -80 233 -3 11 -7 32 -10 46 -36 163 -49 375 -29 460 7 30 15 73 18 95 4
22 10 56 15 75 5 19 11 49 13 65 4 23 85 426 113 560 2 11 11 54 19 95 8 41
24 119 35 172 11 54 22 108 24 120 3 13 12 59 21 103 9 44 19 94 21 110 3 17
14 68 24 115 10 47 21 103 24 125 4 22 9 48 12 58 3 9 4 17 2 17 -2 0 -45 -42
-95 -92z"/>
<path d="M15074 12606 c-12 -8 -29 -34 -38 -57 -21 -52 -11 -106 40 -217 65
-142 122 -207 475 -544 85 -81 177 -178 205 -215 45 -59 134 -206 134 -220 0
-2 22 -37 50 -76 46 -68 116 -141 287 -301 39 -38 104 -115 144 -172 78 -112
85 -114 92 -33 8 92 -15 151 -141 359 -115 191 -497 742 -600 865 -24 29 -50
76 -83 152 -77 174 -248 391 -345 441 -57 29 -190 40 -220 18z"/>
</g>
</svg>
